<?xml version="1.0" encoding="UTF-8" standalone="no"?>
<!-- Created with Inkscape (http://www.inkscape.org/) -->

<svg
   width="512"
   height="512"
   viewBox="0 0 135.46667 135.46667"
   version="1.1"
   id="svg254"
   inkscape:version="1.2.2 (b0a8486541, 2022-12-01)"
   sodipodi:docname="apollo-lv-logo.svg"
   xmlns:inkscape="http://www.inkscape.org/namespaces/inkscape"
   xmlns:sodipodi="http://sodipodi.sourceforge.net/DTD/sodipodi-0.dtd"
   xmlns="http://www.w3.org/2000/svg"
   xmlns:svg="http://www.w3.org/2000/svg">
  <sodipodi:namedview
     id="namedview256"
     pagecolor="#ffffff"
     bordercolor="#000000"
     borderopacity="0.25"
     inkscape:showpageshadow="2"
     inkscape:pageopacity="0.0"
     inkscape:pagecheckerboard="0"
     inkscape:deskcolor="#d1d1d1"
     inkscape:document-units="px"
     showgrid="false"
     inkscape:zoom="0.83972969"
     inkscape:cx="45.252657"
     inkscape:cy="147.07114"
     inkscape:window-width="1920"
     inkscape:window-height="1016"
     inkscape:window-x="1920"
     inkscape:window-y="27"
     inkscape:window-maximized="1"
     inkscape:current-layer="layer1" />
  <defs
     id="defs251" />
  <g
     inkscape:label="Layer 1"
     inkscape:groupmode="layer"
     id="layer1"
     transform="translate(-87.908879,-131.47679)">
    <circle
       style="fill:#aa182c;stroke-width:0.264583;-inkscape-stroke:none;stop-color:#000000;fill-opacity:1"
       id="path367"
       cx="155.64221"
       cy="199.21013"
       r="66.868614" />
    <g
       id="g36"
       transform="matrix(0.60823843,0,0,0.60823843,-281.2107,164.22147)"
       style="fill:#ffffff">
      <path
         class="st6"
         d="m 715.5,69.9 c 0,7 4.1,10.5 12.2,10.5 10.9,0 16.4,-5.5 16.4,-16.4 v -7.3 c -3.1,-0.6 -5.5,-0.9 -7,-0.9 -14.4,-0.1 -21.6,4.7 -21.6,14.1 z"
         id="path32"
         style="clip-rule:evenodd;fill:#ffffff;fill-rule:evenodd" />
      <path
         class="st6"
         d="M 771.5,0 H 664.6 c -6.5,0 -11.8,5.3 -11.8,11.8 v 36.8 c 5.7,4.3 10.2,9 13.6,13.3 13.1,16.7 19.5,38.8 19.5,67.6 0,0.2 0,0.3 0,0.5 l 23.7,-21.3 h 61.9 c 6.5,0 11.8,-5.3 11.8,-11.8 V 11.8 C 783.3,5.3 778,0 771.5,0 Z m -8,94 c -1.9,0.6 -4,0.9 -6.3,0.9 -2.6,0 -5,-1 -7.1,-2.9 -2.1,-1.9 -3.5,-4.1 -4.2,-6.3 -1.7,2.7 -4.5,5 -8.6,6.7 -4.1,1.7 -8.4,2.6 -12.9,2.6 -8.4,0 -15,-2.1 -19.8,-6.3 -4.8,-4.2 -7.2,-10.2 -7.2,-17.9 0,-9 3.4,-16.1 10.2,-21.2 6.8,-5.1 16.4,-7.7 28.9,-7.7 2.1,0 4.7,0.4 7.6,1.1 0,-9.2 -5.8,-13.8 -17.4,-13.8 -6.9,0 -12.6,1.1 -17.2,3.4 l -3.9,-14.2 c 6.3,-3 13.7,-4.5 22.4,-4.5 11.9,0 20.7,2.7 26.2,8.1 5.5,5.4 8.3,15.7 8.3,30.8 v 16.7 c 0,10.4 2.1,17 6.3,19.6 -1.7,2.7 -3.4,4.3 -5.3,4.9 z"
         id="path34"
         style="clip-rule:evenodd;fill:#ffffff;fill-rule:evenodd" />
    </g>
  </g>
</svg>
